<?xml version="1.0" encoding="UTF-8" standalone="no"?>
<svg
   xmlns:dc="http://purl.org/dc/elements/1.1/"
   xmlns:cc="http://creativecommons.org/ns#"
   xmlns:rdf="http://www.w3.org/1999/02/22-rdf-syntax-ns#"
   xmlns:svg="http://www.w3.org/2000/svg"
   xmlns="http://www.w3.org/2000/svg"
   version="1.1"
   id="svg2"
   viewBox="0 0 744.09449 744.09448"
   height="210mm"
   width="210mm">
  <defs
     id="defs4" />
  <metadata
     id="metadata7">
    <rdf:RDF>
      <cc:Work
         rdf:about="">
        <dc:format>image/svg+xml</dc:format>
        <dc:type
           rdf:resource="http://purl.org/dc/dcmitype/StillImage" />
        <dc:title></dc:title>
      </cc:Work>
    </rdf:RDF>
  </metadata>
  <g
     transform="translate(0,-308.26772)"
     id="layer1">
    <g
       transform="matrix(2.803882,0,0,2.803882,-861.79108,-877.23803)"
       id="g4147">
      <path
         id="path4151"
         d="m 412.45904,670.70537 c 0.67755,-3.18843 13.21285,-70.65605 13.74222,-73.96357 0.271,-1.69318 -0.97378,-3.03802 -5.79154,-6.2571 -11.20705,-7.4882 -16.7832,-17.70009 -16.70142,-30.58617 0.0925,-14.57887 6.71794,-25.63303 19.52556,-32.57732 6.04722,-3.2788 6.75399,-3.42268 16.81259,-3.42268 10.0586,0 10.76537,0.14388 16.81259,3.42268 12.80762,6.94429 19.43304,17.99845 19.52556,32.57732 0.0818,12.88608 -5.49437,23.09797 -16.70142,30.58617 -4.81816,3.21934 -6.06249,4.56377 -5.79121,6.2571 0.19003,1.1862 3.40596,18.58173 7.14649,38.65673 3.74054,20.075 6.73506,36.55204 6.65449,36.61564 -0.0806,0.0636 -12.67537,0.42668 -27.98844,0.80685 l -27.84194,0.6912 0.59647,-2.80685 z m -38.62636,-17.942 c -26.52389,-17.71451 -45.38383,-48.00359 -50.23556,-80.67831 -1.95185,-13.14501 -1.95185,-20.22805 0,-33.37306 7.72474,-52.02348 47.73932,-92.03806 99.7628,-99.7628 13.14501,-1.95185 20.22805,-1.95185 33.37306,0 52.02348,7.72474 92.03806,47.73932 99.7628,99.7628 1.95185,13.14501 1.95185,20.22805 0,33.37306 -3.57007,24.04322 -14.48291,46.73699 -30.88034,64.21718 -7.99647,8.52449 -24.71186,21.28675 -26.08365,19.91496 -0.18084,-0.18084 -1.97815,-11.8385 -3.99401,-25.90591 l -3.66522,-25.57711 4.83846,-6.41782 c 9.53445,-12.64669 14.3007,-26.95069 14.3007,-42.91783 0,-11.88223 -2.15688,-20.95163 -7.6096,-31.99744 -3.8775,-7.85479 -6.17342,-10.98247 -13.27459,-18.08364 -7.10117,-7.10117 -10.22885,-9.39709 -18.08364,-13.27459 -11.04581,-5.45273 -20.11521,-7.6096 -31.99744,-7.6096 -11.88223,0 -20.95163,2.15687 -31.99744,7.6096 -7.85479,3.8775 -10.98247,6.17342 -18.08364,13.27459 -7.10117,7.10117 -9.39709,10.22885 -13.27459,18.08364 -5.45273,11.04581 -7.6096,20.11521 -7.6096,31.99744 0,15.961 4.76644,30.27133 14.29039,42.9042 l 4.82814,6.4042 -3.62933,26.06517 c -1.99613,14.33584 -3.72019,26.15603 -3.83126,26.26709 -0.11106,0.11106 -3.21896,-1.81306 -6.90644,-4.27582 z"
         style="fill:#f48120" />
      <path
         id="path4149"
         d="m 412.45904,670.70537 c 0.67755,-3.18843 13.21285,-70.65605 13.74222,-73.96357 0.271,-1.69318 -0.97378,-3.03802 -5.79154,-6.2571 -11.20705,-7.4882 -16.7832,-17.70009 -16.70142,-30.58617 0.0925,-14.57887 6.71794,-25.63303 19.52556,-32.57732 6.04722,-3.2788 6.75399,-3.42268 16.81259,-3.42268 10.0586,0 10.76537,0.14388 16.81259,3.42268 12.80762,6.94429 19.43304,17.99845 19.52556,32.57732 0.0818,12.88608 -5.49437,23.09797 -16.70142,30.58617 -4.81816,3.21934 -6.06249,4.56377 -5.79121,6.2571 0.19003,1.1862 3.40596,18.58173 7.14649,38.65673 3.74054,20.075 6.73506,36.55204 6.65449,36.61564 -0.0806,0.0636 -12.67537,0.42668 -27.98844,0.80685 l -27.84194,0.6912 0.59647,-2.80685 z"
         style="fill:#093566" />
    </g>
  </g>
</svg>
